<svg width="81" height="25" viewBox="0 0 81 25" fill="none" xmlns="http://www.w3.org/2000/svg">
<path fill-rule="evenodd" clip-rule="evenodd" d="M78.0001 0.0791016H2.99994C1.34995 0.0791016 0 1.42906 0 3.07905V21.0791C0 22.7291 1.34995 24.0791 2.99994 24.0791H78.0001C79.65 24.0791 81 22.7291 81 21.0791V3.07905C81 1.42906 79.65 0.0791016 78.0001 0.0791016ZM78.0001 0.559033C79.3895 0.559033 80.5199 1.6894 80.5199 3.07905V21.0791C80.5199 22.4686 79.3895 23.5992 78.0001 23.5992H2.99994C1.6103 23.5992 0.479931 22.4686 0.479931 21.0791V3.07905C0.479931 1.6894 1.6103 0.559033 2.99994 0.559033H78.0001Z" fill="white"/>
<path fill-rule="evenodd" clip-rule="evenodd" d="M28.4482 6.13971C28.4482 6.64247 28.2992 7.0428 28.0011 7.34135C27.6624 7.69644 27.2211 7.87399 26.6784 7.87399C26.1588 7.87399 25.7171 7.69409 25.3537 7.33388C24.9898 6.97345 24.8082 6.5266 24.8082 5.99374C24.8082 5.46046 24.9898 5.01403 25.3537 4.65382C25.7171 4.29339 26.1588 4.11328 26.6784 4.11328C26.9364 4.11328 27.1831 4.16364 27.4174 4.26415C27.6518 4.36488 27.84 4.49868 27.9806 4.66641L27.6641 4.98309C27.4258 4.6982 27.0976 4.55587 26.6784 4.55587C26.2994 4.55587 25.9719 4.68881 25.6953 4.95556C25.4188 5.2221 25.2805 5.56801 25.2805 5.99374C25.2805 6.41947 25.4188 6.76539 25.6953 7.03214C25.9719 7.29867 26.2994 7.43162 26.6784 7.43162C27.0805 7.43162 27.4157 7.29782 27.684 7.02979C27.8581 6.85501 27.9588 6.61217 27.9857 6.30039H26.6784V5.86805H28.423C28.4398 5.96216 28.4482 6.05243 28.4482 6.13971Z" fill="#FFFFFE"/>
<path fill-rule="evenodd" clip-rule="evenodd" d="M28.4497 6.14127H28.4284C28.4282 6.63998 28.2813 7.0337 27.9875 7.32798L27.9873 7.32819H27.9871C27.6525 7.67902 27.2182 7.854 26.68 7.85422C26.1653 7.854 25.7302 7.67688 25.3704 7.32029C25.0104 6.96349 24.8313 6.52347 24.8311 5.99531C24.8313 5.46693 25.0104 5.02712 25.3704 4.67053C25.7302 4.31373 26.1653 4.1364 26.68 4.13619C26.9352 4.13619 27.1789 4.18591 27.4107 4.28535C27.6424 4.38501 27.8277 4.51689 27.9657 4.68163L27.9822 4.66797L27.967 4.65282L27.6505 4.9695L27.6657 4.98466L27.6821 4.97079C27.4397 4.68099 27.1038 4.53567 26.68 4.53609C26.2961 4.53588 25.9621 4.6716 25.6822 4.94176C25.4011 5.21214 25.2605 5.5651 25.2607 5.99531C25.2605 6.42552 25.4011 6.77848 25.6822 7.04907C25.9621 7.31901 26.2961 7.45473 26.68 7.45452C27.0867 7.45473 27.4286 7.31837 27.7007 7.04629C27.8791 6.86746 27.9815 6.61907 28.0086 6.30388L28.0105 6.28062H26.7014V5.89096H28.4245V5.86962L28.4034 5.87346C28.4203 5.96629 28.4284 6.05527 28.4284 6.14127H28.4711C28.4711 6.0525 28.4627 5.96116 28.4455 5.86577L28.4423 5.84828H26.6587V6.3233H27.9873V6.30196L27.9662 6.30025C27.9393 6.60861 27.8403 6.8457 27.6704 7.0162C27.4058 7.28018 27.0774 7.41163 26.68 7.41184C26.3061 7.41163 25.985 7.28124 25.7118 7.01834C25.4395 6.75543 25.3036 6.41655 25.3034 5.99531C25.3036 5.57406 25.4395 5.23519 25.7118 4.97249C25.985 4.70937 26.3061 4.57899 26.68 4.57877C27.0944 4.57899 27.4147 4.71855 27.6493 4.99831L27.6642 5.01624L28.011 4.66904L27.9984 4.6541C27.8554 4.4836 27.6642 4.34788 27.4275 4.24609C27.1905 4.14451 26.9408 4.09329 26.68 4.09351C26.1555 4.09308 25.7071 4.27596 25.3403 4.64023C24.9726 5.00407 24.7882 5.45733 24.7885 5.99531C24.7882 6.53307 24.9726 6.98654 25.3403 7.3506C25.7071 7.71465 26.1555 7.89711 26.68 7.89689C27.2272 7.89711 27.6755 7.71721 28.018 7.35764L28.0026 7.34291L28.0176 7.35806C28.3204 7.05525 28.4713 6.64809 28.4711 6.14127H28.4497Z" fill="#FFFFFE"/>
<path fill-rule="evenodd" clip-rule="evenodd" d="M31.221 4.63476H29.5815V5.77622H31.0599V6.20857H29.5815V7.35003H31.221V7.7924H29.1193V4.19238H31.221V4.63476Z" fill="#FFFFFE"/>
<path fill-rule="evenodd" clip-rule="evenodd" d="M31.2127 4.63632V4.61498H29.5518V5.79912H31.0302V6.18879H29.5518V7.37293H31.1914V7.77263H29.1323V4.21529H31.1914V4.63632H31.2127V4.61498V4.63632H31.234V4.17261H29.0896V7.81531H31.234V7.33025H29.5945V6.23147H31.0729V5.75645H29.5945V4.65766H31.234V4.63632H31.2127Z" fill="#FFFFFE"/>
<path fill-rule="evenodd" clip-rule="evenodd" d="M33.1683 7.7924H32.7055V4.63476H31.7V4.19238H34.1739V4.63476H33.1683V7.7924Z" fill="#FFFFFE"/>
<path fill-rule="evenodd" clip-rule="evenodd" d="M33.1699 7.79397V7.77263H32.7284V4.61498H31.7229V4.21529H34.1541V4.61498H33.1486V7.79397H33.1699V7.77263V7.79397H33.1912V4.65766H34.1968V4.17261H31.6802V4.65766H32.6857V7.81531H33.1912V7.79397H33.1699Z" fill="#FFFFFE"/>
<path fill-rule="evenodd" clip-rule="evenodd" d="M35.9615 7.7924H36.424V4.19238H35.9615V7.7924Z" fill="#FFFFFE"/>
<path fill-rule="evenodd" clip-rule="evenodd" d="M35.9631 7.79397H35.9845V4.21529H36.4042V7.77263H35.9631V7.79397H35.9845H35.9631V7.81531H36.4469V4.17261H35.9418V7.81531H35.9631V7.79397Z" fill="#FFFFFE"/>
<path fill-rule="evenodd" clip-rule="evenodd" d="M38.4778 7.7924H38.015V4.63476H37.0096V4.19238H39.4833V4.63476H38.4778V7.7924Z" fill="#FFFFFE"/>
<path fill-rule="evenodd" clip-rule="evenodd" d="M38.4794 7.79397V7.77263H38.0379V4.61498H37.0326V4.21529H39.4636V4.61498H38.458V7.79397H38.4794V7.77263V7.79397H38.5007V4.65766H39.5063V4.17261H36.9899V4.65766H37.9952V7.81531H38.5007V7.79397H38.4794Z" fill="#FFFFFE"/>
<path fill-rule="evenodd" clip-rule="evenodd" d="M41.8663 7.02701C42.1329 7.29696 42.4587 7.43162 42.8441 7.43162C43.2297 7.43162 43.556 7.29696 43.8221 7.02701C44.0887 6.75728 44.2222 6.41264 44.2222 5.99374C44.2222 5.57484 44.0887 5.23021 43.8221 4.96047C43.556 4.69052 43.2297 4.55587 42.8441 4.55587C42.4587 4.55587 42.1329 4.69052 41.8663 4.96047C41.6002 5.23021 41.4666 5.57484 41.4666 5.99374C41.4666 6.41264 41.6002 6.75728 41.8663 7.02701ZM44.1644 7.32854C43.8104 7.69239 43.3704 7.87399 42.8441 7.87399C42.3181 7.87399 41.8781 7.69239 41.5247 7.32854C41.1707 6.96492 40.9944 6.51998 40.9944 5.99374C40.9944 5.4675 41.1707 5.02257 41.5247 4.65894C41.8781 4.2951 42.3181 4.11328 42.8441 4.11328C43.3674 4.11328 43.8063 4.29595 44.1621 4.66129C44.5172 5.02662 44.6947 5.4707 44.6947 5.99374C44.6947 6.51998 44.5176 6.96492 44.1644 7.32854Z" fill="#FFFFFE"/>
<path fill-rule="evenodd" clip-rule="evenodd" d="M41.8679 7.02858L41.8527 7.04373C42.1227 7.31731 42.4552 7.45473 42.8457 7.45452C43.2362 7.45473 43.5693 7.31731 43.8388 7.04373C44.1096 6.76994 44.2454 6.41869 44.2451 5.99531C44.2454 5.57193 44.1096 5.22067 43.8388 4.9471C43.5693 4.67331 43.2362 4.53588 42.8457 4.53609C42.4552 4.53588 42.1227 4.67331 41.8527 4.9471C41.5826 5.22067 41.4466 5.57193 41.4469 5.99531C41.4466 6.41869 41.5826 6.76994 41.8525 7.04373L41.8679 7.02858L41.883 7.01364C41.621 6.74775 41.4898 6.40973 41.4895 5.99531C41.4898 5.58089 41.621 5.24287 41.883 4.97697C42.1462 4.71108 42.4652 4.57899 42.8457 4.57877C43.2264 4.57899 43.5461 4.71108 43.8085 4.97697C44.071 5.24287 44.2025 5.58089 44.2025 5.99531C44.2025 6.40973 44.071 6.74775 43.8085 7.01364C43.5461 7.27953 43.2264 7.41163 42.8457 7.41184C42.4652 7.41163 42.1462 7.27953 41.883 7.01364L41.8679 7.02858ZM44.166 7.33011L44.1506 7.31517C43.8002 7.67517 43.367 7.854 42.8457 7.85422C42.3244 7.854 41.8912 7.67517 41.5416 7.31517C41.1914 6.95517 41.0175 6.51685 41.0173 5.99531C41.0175 5.47376 41.1914 5.03544 41.5416 4.67544C41.8912 4.31544 42.3246 4.1364 42.8457 4.13619C43.364 4.1364 43.7962 4.31629 44.1483 4.67779C44.4995 5.0395 44.6747 5.47718 44.6749 5.99531C44.6747 6.51685 44.5002 6.95517 44.1506 7.31517L44.166 7.33011L44.1811 7.34505C44.5381 6.97779 44.7176 6.52624 44.7176 5.99531C44.7176 5.46758 44.5377 5.01688 44.1788 4.64813C43.8196 4.27874 43.3741 4.09308 42.8457 4.09351C42.3147 4.09308 41.8679 4.27788 41.5109 4.64578C41.1532 5.01282 40.9744 5.46437 40.9746 5.99531C40.9744 6.52624 41.1532 6.97779 41.5109 7.34505C41.8679 7.71295 42.3147 7.89711 42.8457 7.89689C43.3768 7.89711 43.8237 7.71295 44.1811 7.34505L44.166 7.33011Z" fill="#FFFFFE"/>
<path fill-rule="evenodd" clip-rule="evenodd" d="M45.345 7.7924V4.19238H45.9079L47.6576 6.99302H47.6776L47.6576 6.29905V4.19238H48.1204V7.7924H47.6377L45.8072 4.85626H45.7873L45.8072 5.55002V7.7924H45.345Z" fill="#FFFFFE"/>
<path fill-rule="evenodd" clip-rule="evenodd" d="M45.3465 7.79397H45.3679V4.21529H45.8977L47.6474 7.01592H47.7012L47.6805 6.3004V4.21529H48.1006V7.77263H47.651L45.8207 4.83649H45.7669L45.7874 5.5518V7.77263H45.3465V7.79397H45.3679H45.3465V7.81531H45.8301V5.55137L45.8103 4.85719L45.7889 4.85783V4.87917H45.797L47.6273 7.81531H48.1433V4.17261H47.6378V6.30104L47.6578 6.99501L47.6792 6.99458V6.97303H47.6711L45.9214 4.17261H45.3252V7.81531H45.3465V7.79397Z" fill="#FFFFFE"/>
<path fill-rule="evenodd" clip-rule="evenodd" d="M64.1572 17.9954H65.2765V10.4947H64.1572V17.9954ZM74.2413 13.1967L72.9579 16.4487H72.9193L71.5875 13.1967H70.3814L72.3788 17.7417L71.2401 20.27H72.4078L75.486 13.1967H74.2413ZM67.8917 17.1435C67.5248 17.1435 67.0135 16.9602 67.0135 16.5065C67.0135 15.9276 67.6503 15.7056 68.2004 15.7056C68.6925 15.7056 68.9241 15.8117 69.2233 15.9566C69.1364 16.6512 68.5382 17.1435 67.8917 17.1435ZM68.0267 13.0326C67.216 13.0326 66.3765 13.3896 66.0291 14.1809L67.0231 14.596C67.2355 14.1809 67.6311 14.0458 68.0459 14.0458C68.6251 14.0458 69.2136 14.3932 69.2233 15.0108V15.0881C69.0207 14.9722 68.5865 14.7985 68.0558 14.7985C66.9845 14.7985 65.894 15.3872 65.894 16.4873C65.894 17.4909 66.7722 18.1373 67.7566 18.1373C68.5092 18.1373 68.9241 17.7997 69.1848 17.4041H69.2233V17.983H70.3041V15.1073C70.3041 13.7757 69.3101 13.0326 68.0267 13.0326ZM61.1077 14.1098H59.5156V11.5386H61.1077C61.9447 11.5386 62.4201 12.2315 62.4201 12.8241C62.4201 13.4054 61.9447 14.1098 61.1077 14.1098ZM61.0787 10.4947H58.3961V17.9954H59.5156V15.1536H61.0787C62.3198 15.1536 63.5396 14.2552 63.5396 12.8241C63.5396 11.3931 62.3198 10.4947 61.0787 10.4947ZM46.4501 17.1448C45.677 17.1448 45.0293 16.4971 45.0293 15.6079C45.0293 14.7091 45.677 14.0516 46.4501 14.0516C47.2138 14.0516 47.8131 14.7091 47.8131 15.6079C47.8131 16.4971 47.2138 17.1448 46.4501 17.1448ZM47.7358 13.6167H47.6972C47.4458 13.3171 46.9625 13.0465 46.3534 13.0465C45.0775 13.0465 43.9079 14.1677 43.9079 15.6079C43.9079 17.0385 45.0775 18.1501 46.3534 18.1501C46.9625 18.1501 47.4458 17.8795 47.6972 17.5701H47.7358V17.9376C47.7358 18.9139 47.2138 19.4358 46.3728 19.4358C45.6866 19.4358 45.2613 18.9429 45.0873 18.5272L44.1108 18.9331C44.3912 19.6097 45.1356 20.4411 46.3728 20.4411C47.6874 20.4411 48.7992 19.6678 48.7992 17.7829V13.201H47.7358V13.6167ZM49.5723 17.9954H50.6937V10.4945H49.5723V17.9954ZM52.3467 15.521C52.3177 14.5349 53.1102 14.0324 53.6804 14.0324C54.1252 14.0324 54.5022 14.2547 54.6279 14.5738L52.3467 15.521ZM55.8264 14.6702C55.6138 14.1 54.9662 13.0465 53.6418 13.0465C52.3273 13.0465 51.2351 14.0806 51.2351 15.5983C51.2351 17.0289 52.3177 18.1501 53.7675 18.1501C54.9371 18.1501 55.6138 17.4348 55.894 17.0193L55.0242 16.4393C54.7342 16.8646 54.3379 17.1448 53.7675 17.1448C53.1973 17.1448 52.7912 16.8838 52.5302 16.3717L55.9424 14.9602L55.8264 14.6702ZM28.6414 13.8294V14.912H31.2321C31.1546 15.521 30.9519 15.9656 30.6424 16.275C30.2654 16.6518 29.6758 17.0675 28.6414 17.0675C27.0465 17.0675 25.7996 15.7818 25.7996 14.1869C25.7996 12.5922 27.0465 11.3064 28.6414 11.3064C29.5018 11.3064 30.1301 11.6447 30.594 12.0798L31.3578 11.316C30.7101 10.6974 29.8499 10.2239 28.6414 10.2239C26.4569 10.2239 24.6204 12.0025 24.6204 14.1869C24.6204 16.3717 26.4569 18.1501 28.6414 18.1501C29.8209 18.1501 30.7101 17.7634 31.406 17.0385C32.1213 16.3232 32.3437 15.3179 32.3437 14.5059C32.3437 14.2547 32.3244 14.0228 32.2856 13.8294H28.6414ZM35.2888 17.1448C34.5154 17.1448 33.8485 16.5069 33.8485 15.5983C33.8485 14.6798 34.5154 14.0516 35.2888 14.0516C36.0621 14.0516 36.729 14.6798 36.729 15.5983C36.729 16.5069 36.0621 17.1448 35.2888 17.1448ZM35.2888 13.0465C33.8773 13.0465 32.7271 14.1192 32.7271 15.5983C32.7271 17.0675 33.8773 18.1501 35.2888 18.1501C36.7 18.1501 37.8502 17.0675 37.8502 15.5983C37.8502 14.1192 36.7 13.0465 35.2888 13.0465ZM40.8768 17.1448C40.1034 17.1448 39.4366 16.5069 39.4366 15.5983C39.4366 14.6798 40.1034 14.0516 40.8768 14.0516C41.6501 14.0516 42.317 14.6798 42.317 15.5983C42.317 16.5069 41.6501 17.1448 40.8768 17.1448ZM40.8768 13.0465C39.4654 13.0465 38.3152 14.1192 38.3152 15.5983C38.3152 17.0675 39.4654 18.1501 40.8768 18.1501C42.288 18.1501 43.4384 17.0675 43.4384 15.5983C43.4384 14.1192 42.288 13.0465 40.8768 13.0465Z" fill="#FFFFFE"/>
<mask id="mask0" mask-type="alpha" maskUnits="userSpaceOnUse" x="5" y="4" width="9" height="16">
<path d="M6.30429 19.4351L6.25969 19.3922C6.08534 19.2076 5.98206 18.9208 5.98206 18.5493V18.6368V5.36708C5.98206 5.36601 5.98206 5.36494 5.98206 5.36388C5.98206 5.36494 5.98206 5.36622 5.98206 5.36729V5.455C5.98206 5.05295 6.10241 4.74972 6.30386 4.56812L13.7376 12.0018L6.30429 19.4351ZM5.98206 5.36324C5.98206 5.3276 5.98312 5.29239 5.98504 5.25824C5.98312 5.29239 5.98206 5.3276 5.98206 5.36324Z" fill="white"/>
</mask>
<g mask="url(#mask0)">
<path d="M6.30429 19.4351L6.25969 19.3922C6.08534 19.2076 5.98206 18.9208 5.98206 18.5493V18.6368V5.36708C5.98206 5.36601 5.98206 5.36494 5.98206 5.36388C5.98206 5.36494 5.98206 5.36622 5.98206 5.36729V5.455C5.98206 5.05295 6.10241 4.74972 6.30386 4.56812L13.7376 12.0018L6.30429 19.4351ZM5.98206 5.36324C5.98206 5.3276 5.98312 5.29239 5.98504 5.25824C5.98312 5.29239 5.98206 5.3276 5.98206 5.36324Z" fill="#00D4FF"/>
</g>
<mask id="mask1" mask-type="alpha" maskUnits="userSpaceOnUse" x="13" y="9" width="7" height="6">
<path d="M16.2116 14.5767L16.2681 14.5445L19.2038 12.8765C19.474 12.7229 19.6571 12.5381 19.7531 12.342C19.6571 12.5381 19.474 12.7231 19.2038 12.8767L16.2681 14.5449L16.2116 14.5767ZM16.2122 14.4888L13.734 12.0101L16.2122 9.53174L19.2038 11.2315C19.5839 11.4474 19.7971 11.7255 19.8327 12.0097C19.8327 12.0101 19.8327 12.0106 19.8327 12.011C19.7971 12.2946 19.5839 12.5729 19.2038 12.7888L16.2122 14.4888Z" fill="white"/>
</mask>
<g mask="url(#mask1)">
<path d="M16.2116 14.5767L16.2681 14.5445L19.2038 12.8765C19.474 12.7229 19.6571 12.5381 19.7531 12.342C19.6571 12.5381 19.474 12.7231 19.2038 12.8767L16.2681 14.5449L16.2116 14.5767ZM16.2122 14.4888L13.734 12.0101L16.2122 9.53174L19.2038 11.2315C19.5839 11.4474 19.7971 11.7255 19.8327 12.0097C19.8327 12.0101 19.8327 12.0106 19.8327 12.011C19.7971 12.2946 19.5839 12.5729 19.2038 12.7888L16.2122 14.4888Z" fill="#FFCC00"/>
</g>
<mask id="mask2" mask-type="alpha" maskUnits="userSpaceOnUse" x="6" y="12" width="11" height="8">
<path d="M6.83921 19.7199C6.63157 19.7199 6.45061 19.6523 6.30934 19.5249L6.30956 19.5247C6.45083 19.6523 6.63222 19.7199 6.83985 19.7199C6.87143 19.7199 6.90387 19.7184 6.93673 19.7152C6.90366 19.7184 6.87101 19.7199 6.83921 19.7199ZM6.83964 19.6322C6.632 19.6322 6.45083 19.5646 6.30956 19.4372L6.30934 19.4369L13.7426 12.0037L16.2208 14.4823L7.51163 19.4308C7.27091 19.5675 7.04258 19.6322 6.83964 19.6322ZM6.307 19.5227C6.29377 19.511 6.28118 19.4986 6.2688 19.4856L6.307 19.5227Z" fill="white"/>
</mask>
<g mask="url(#mask2)">
<path fill-rule="evenodd" clip-rule="evenodd" d="M6.83921 19.7199C6.63157 19.7199 6.45061 19.6523 6.30934 19.5249L6.30956 19.5247C6.45083 19.6523 6.63222 19.7199 6.83985 19.7199C6.87143 19.7199 6.90387 19.7184 6.93673 19.7152C6.90366 19.7184 6.87101 19.7199 6.83921 19.7199ZM6.83964 19.6322C6.632 19.6322 6.45083 19.5646 6.30956 19.4372L6.30934 19.4369L13.7426 12.0037L16.2208 14.4823L7.51163 19.4308C7.27091 19.5675 7.04258 19.6322 6.83964 19.6322ZM6.307 19.5227C6.29377 19.511 6.28118 19.4986 6.2688 19.4856L6.307 19.5227Z" fill="url(#paint0_linear)"/>
</g>
<mask id="mask3" mask-type="alpha" maskUnits="userSpaceOnUse" x="6" y="4" width="11" height="9">
<path d="M13.7421 12.0075L6.30835 4.5738C6.44941 4.4464 6.63058 4.37897 6.838 4.37897C7.04116 4.37897 7.26992 4.44384 7.51106 4.58084L16.2202 9.52911L13.7421 12.0075ZM16.2762 9.4732L7.51106 4.49335C7.26992 4.35613 7.04116 4.29126 6.83779 4.29126C6.83608 4.29126 6.83459 4.29126 6.83288 4.29126C6.8348 4.29126 6.83672 4.29126 6.83864 4.29126C7.04158 4.29126 7.27013 4.35613 7.51106 4.49292L16.2762 9.4732Z" fill="white"/>
</mask>
<g mask="url(#mask3)">
<path d="M13.7421 12.0075L6.30835 4.5738C6.44941 4.4464 6.63058 4.37897 6.838 4.37897C7.04116 4.37897 7.26992 4.44384 7.51106 4.58084L16.2202 9.52911L13.7421 12.0075ZM16.2762 9.4732L7.51106 4.49335C7.26992 4.35613 7.04116 4.29126 6.83779 4.29126C6.83608 4.29126 6.83459 4.29126 6.83288 4.29126C6.8348 4.29126 6.83672 4.29126 6.83864 4.29126C7.04158 4.29126 7.27013 4.35613 7.51106 4.49292L16.2762 9.4732Z" fill="#00F076"/>
</g>
<path fill-rule="evenodd" clip-rule="evenodd" d="M6.93127 19.7195C7.10882 19.7022 7.30301 19.638 7.50617 19.5225L16.2147 14.5745L7.50617 19.5225C7.30301 19.6382 7.10882 19.7022 6.93127 19.7195Z" fill="#0A0B09"/>
<mask id="mask4" mask-type="alpha" maskUnits="userSpaceOnUse" x="6" y="14" width="11" height="6">
<path d="M6.8338 19.7132C6.62617 19.7132 6.44478 19.6456 6.30351 19.518L6.3033 19.5182C6.30244 19.5175 6.30159 19.5169 6.30095 19.516L6.26275 19.4789C6.26147 19.4776 6.26019 19.4763 6.25891 19.4749L6.30351 19.4305C6.44478 19.5579 6.62596 19.6255 6.83359 19.6255C7.03653 19.6255 7.26487 19.5609 7.50558 19.4241L16.2148 14.4756L16.2707 14.5313L16.2141 14.5635L7.50558 19.5116C7.30243 19.627 7.10823 19.6912 6.93069 19.7085C6.89782 19.7117 6.86539 19.7132 6.8338 19.7132Z" fill="white"/>
</mask>
<g mask="url(#mask4)">
<path d="M6.8338 19.7132C6.62617 19.7132 6.44478 19.6456 6.30351 19.518L6.3033 19.5182C6.30244 19.5175 6.30159 19.5169 6.30095 19.516L6.26275 19.4789C6.26147 19.4776 6.26019 19.4763 6.25891 19.4749L6.30351 19.4305C6.44478 19.5579 6.62596 19.6255 6.83359 19.6255C7.03653 19.6255 7.26487 19.5609 7.50558 19.4241L16.2148 14.4756L16.2707 14.5313L16.2141 14.5635L7.50558 19.5116C7.30243 19.627 7.10823 19.6912 6.93069 19.7085C6.89782 19.7117 6.86539 19.7132 6.8338 19.7132Z" fill="#D73A48"/>
</g>
<path fill-rule="evenodd" clip-rule="evenodd" d="M6.25969 19.4716C6.08534 19.2867 5.98206 19.0002 5.98206 18.6286V18.6284C5.98206 19.0002 6.08534 19.2865 6.25969 19.4713C6.2599 19.4713 6.2599 19.4713 6.2599 19.4713L6.25969 19.4716Z" fill="#0A0B09"/>
<mask id="mask5" mask-type="alpha" maskUnits="userSpaceOnUse" x="6" y="19" width="1" height="1">
<path d="M6.25913 19.484C6.25913 19.484 6.25913 19.484 6.25891 19.484L6.3037 19.4392L6.30391 19.4394L6.25913 19.484Z" fill="white"/>
</mask>
<g mask="url(#mask5)">
<path fill-rule="evenodd" clip-rule="evenodd" d="M6.25913 19.484C6.25913 19.484 6.25913 19.484 6.25891 19.484L6.3037 19.4392L6.30391 19.4394L6.25913 19.484Z" fill="url(#paint1_linear)"/>
</g>
<path fill-rule="evenodd" clip-rule="evenodd" d="M19.7556 12.3351C19.8085 12.2269 19.8352 12.1155 19.8352 12.0041C19.8352 12.0039 19.8352 12.0037 19.8352 12.0037C19.8352 12.1151 19.8088 12.2269 19.7556 12.3351Z" fill="#FFCC00"/>
<path fill-rule="evenodd" clip-rule="evenodd" d="M19.84 12.0067C19.84 12.0067 19.84 12.0065 19.84 12.0063C19.8397 11.6926 19.63 11.3789 19.2111 11.1408L16.2754 9.47263H16.2751L16.2754 9.47241L19.2111 11.1405C19.6304 11.3787 19.8404 11.6928 19.84 12.0067Z" fill="#3A3B38"/>
<mask id="mask6" mask-type="alpha" maskUnits="userSpaceOnUse" x="16" y="9" width="4" height="4">
<path d="M19.8363 12.0061C19.8007 11.7218 19.5875 11.4438 19.2074 11.2278L16.2158 9.52811L16.2715 9.47241H16.2717L19.2074 11.1405C19.6263 11.3787 19.8361 11.6924 19.8363 12.0061Z" fill="white"/>
</mask>
<g mask="url(#mask6)">
<path d="M19.8363 12.0061C19.8007 11.7218 19.5875 11.4438 19.2074 11.2278L16.2158 9.52811L16.2715 9.47241H16.2717L19.2074 11.1405C19.6263 11.3787 19.8361 11.6924 19.8363 12.0061Z" fill="#FFCC00"/>
</g>
<path fill-rule="evenodd" clip-rule="evenodd" d="M5.99194 5.25368C6.03014 4.64507 6.3639 4.29382 6.83465 4.29126C6.62936 4.29254 6.45054 4.36019 6.31055 4.48631H6.31033L6.30841 4.48823C6.2939 4.50146 6.2796 4.51533 6.26595 4.52984C6.11059 4.69415 6.01179 4.93956 5.99194 5.25368Z" fill="#3A3B38"/>
<mask id="mask7" mask-type="alpha" maskUnits="userSpaceOnUse" x="6" y="4" width="11" height="6">
<path d="M16.215 9.52911L7.50579 4.58084C7.26465 4.44384 7.03589 4.37897 6.83274 4.37897C6.62531 4.37897 6.44414 4.4464 6.30308 4.5738L6.25891 4.52984C6.27257 4.51533 6.28687 4.50146 6.30138 4.48823C6.30202 4.48759 6.30266 4.48695 6.30351 4.48631C6.4435 4.36019 6.62233 4.29254 6.82762 4.29126C6.82932 4.29126 6.83082 4.29126 6.83252 4.29126C7.03589 4.29126 7.26465 4.35613 7.50579 4.49335L16.2709 9.4732L16.2707 9.47341L16.215 9.52911Z" fill="white"/>
</mask>
<g mask="url(#mask7)">
<path d="M16.215 9.52911L7.50579 4.58084C7.26465 4.44384 7.03589 4.37897 6.83274 4.37897C6.62531 4.37897 6.44414 4.4464 6.30308 4.5738L6.25891 4.52984C6.27257 4.51533 6.28687 4.50146 6.30138 4.48823C6.30202 4.48759 6.30266 4.48695 6.30351 4.48631C6.4435 4.36019 6.62233 4.29254 6.82762 4.29126C6.82932 4.29126 6.83082 4.29126 6.83252 4.29126C7.03589 4.29126 7.26465 4.35613 7.50579 4.49335L16.2709 9.4732L16.2707 9.47341L16.215 9.52911Z" fill="#00F076"/>
</g>
<defs>
<linearGradient id="paint0_linear" x1="14.8997" y1="14.3703" x2="3.96783" y2="25.3022" gradientUnits="userSpaceOnUse">
<stop stop-color="#DC3D46"/>
<stop offset="1" stop-color="#B12359"/>
</linearGradient>
<linearGradient id="paint1_linear" x1="8.0976" y1="18.1859" x2="5.23184" y2="21.0654" gradientUnits="userSpaceOnUse">
<stop stop-color="#CE333C"/>
<stop offset="1" stop-color="#9A2450"/>
</linearGradient>
</defs>
</svg>
