<svg width="11" height="16" viewBox="0 0 11 16" fill="none" xmlns="http://www.w3.org/2000/svg">
<path d="M5.43834 0C2.43731 0 0 2.43731 0 5.43834C0 8.30674 4.85803 15.1876 5.07357 15.4694L5.43834 16L5.80311 15.4694C6.00207 15.171 10.8767 8.30674 10.8767 5.43834C10.8767 2.43731 8.43938 0 5.43834 0ZM5.43834 14.4083C3.89637 12.1534 0.911917 7.4114 0.911917 5.43834C0.911917 2.93471 2.93471 0.911917 5.43834 0.911917C7.94197 0.911917 9.96477 2.9513 9.96477 5.43834C9.96477 7.39482 6.98031 12.1534 5.43834 14.4083Z" fill="white"/>
<path d="M5.43837 2.85181C4.12852 2.85181 3.06738 3.91295 3.06738 5.22279C3.06738 6.53264 4.12852 7.59378 5.43837 7.59378C6.74821 7.59378 7.80935 6.53264 7.80935 5.22279C7.80935 3.91295 6.74821 2.85181 5.43837 2.85181ZM5.43837 6.68186C4.62593 6.68186 3.9793 6.01865 3.9793 5.22279C3.9793 4.42694 4.64251 3.76372 5.43837 3.76372C6.23422 3.76372 6.89743 4.42694 6.89743 5.22279C6.89743 6.01865 6.2508 6.68186 5.43837 6.68186Z" fill="white"/>
</svg>
