<svg width="98" height="50" viewBox="0 0 98 50" fill="none" xmlns="http://www.w3.org/2000/svg">
<path fill-rule="evenodd" clip-rule="evenodd" d="M21.7861 37.6529L69.8997 37.695C65.4853 34.7466 52.1945 33.2675 45.8415 33.2681C44.06 33.2682 41.6823 33.39 39.0954 33.631C39.3707 31.7038 39.3939 12.3899 39.1208 10.9627C34.8599 11.7079 35.9531 16.3441 35.9517 20.6737C35.9502 25.0915 36.0212 29.5629 35.9407 33.9743C30.2715 34.6808 24.3521 35.9132 21.7861 37.6529ZM47.2283 16.6742H51.4315C51.2787 12.8978 51.0259 9.26791 54.9927 8.8277L54.9956 31.8682L51.4975 31.5438C51.3933 27.6951 51.4617 23.7401 51.4768 19.8594H47.2279L47.2267 31.3156L42.9174 31.3712C42.9148 25.5473 42.9154 19.7231 42.918 13.8992C42.92 9.09842 41.47 0.676542 47.2299 1.00959L47.2283 16.6742ZM30.4541 32.7653C33.9803 32.8459 33.2427 31.8491 33.2404 28.611L33.2381 16.397C31.9053 16.2343 30.8798 17.1485 30.5795 18.2389C30.3146 19.1999 30.4765 31.1117 30.4541 32.7653ZM61.2331 32.7795L61.2206 16.3623C57.5342 16.2154 58.4448 21.3515 58.4448 24.4424C58.4444 32.9336 57.6695 32.7682 61.2331 32.7795Z" fill="#FEFEFE"/>
<path fill-rule="evenodd" clip-rule="evenodd" d="M21.6396 37.6529L69.7533 37.695C65.3389 34.7466 52.0481 33.2675 45.6951 33.2681C43.9136 33.2682 41.5359 33.39 38.9489 33.631C39.2243 31.7038 39.2475 12.3899 38.9743 10.9627C34.7134 11.7079 35.8067 16.3441 35.8053 20.6737C35.8038 25.0915 35.8747 29.5629 35.7943 33.9743C30.1251 34.6808 24.2057 35.9132 21.6396 37.6529ZM47.0819 16.6742H51.2851C51.1323 12.8978 50.8795 9.26791 54.8463 8.8277L54.8492 31.8682L51.351 31.5438C51.2469 27.6951 51.3153 23.7401 51.3304 19.8594H47.0815L47.0803 31.3156L42.771 31.3712C42.7684 25.5473 42.769 19.7231 42.7716 13.8992C42.7736 9.09842 41.3236 0.676542 47.0835 1.00959L47.0819 16.6742ZM30.3077 32.7653C33.8339 32.8459 33.0963 31.8491 33.094 28.611L33.0917 16.397C31.7589 16.2343 30.7334 17.1485 30.4331 18.2389C30.1681 19.1999 30.33 31.1117 30.3077 32.7653ZM61.0866 32.7795L61.0742 16.3623C57.3878 16.2154 58.2983 21.3515 58.2983 24.4424C58.298 32.9336 57.5231 32.7682 61.0866 32.7795Z" fill="black" stroke="black" stroke-width="0.216"/>
<path fill-rule="evenodd" clip-rule="evenodd" d="M16.1423 48.602V49.1638H11.5105V41.6774H12.8977V48.602H16.1423ZM18.3683 49.1638H16.9926V41.6774H18.3683V49.1638ZM26.3822 45.667V48.1912C25.9408 48.5753 25.4841 48.8639 25.0103 49.0568C24.5364 49.2498 24.0454 49.3472 23.537 49.3472C22.4212 49.3472 21.5174 48.9861 20.8257 48.2638C20.1359 47.5416 19.79 46.5957 19.79 45.4244C19.79 44.3085 20.1378 43.378 20.8352 42.6328C21.5308 41.8895 22.3944 41.5168 23.4243 41.5168C24.0529 41.5168 24.5956 41.6449 25.058 41.9028C25.5185 42.1608 25.9007 42.5468 26.2026 43.0608L25.7555 43.3742C25.5223 42.9193 25.2357 42.5774 24.8956 42.35C24.5536 42.1226 24.158 42.0099 23.711 42.0099C22.96 42.0099 22.3657 42.3194 21.9262 42.9385C21.4887 43.5595 21.269 44.4041 21.269 45.476C21.269 46.506 21.4792 47.3065 21.8995 47.8797C22.318 48.453 22.9046 48.7397 23.6536 48.7397C23.9459 48.7397 24.2173 48.6957 24.4695 48.6059C24.7198 48.516 24.9377 48.3842 25.1211 48.2141V45.667H26.3822ZM29.3076 45.6327V49.1638H27.9204V41.6774H29.3076V45.0824H32.4375V41.6774H33.8133V49.1638H32.4375V45.6327H29.3076ZM36.8075 49.1638V42.2391H34.847V41.6774H40.1437V42.2391H38.1833V49.1638H36.8075ZM42.5761 49.1638H41.2003V41.6774H42.5761V49.1638ZM44.5137 49.1638V41.6774H45.7844L49.6614 46.846V41.6774H50.3263V49.1638H49.6614L45.1786 43.2003V49.1638H44.5137ZM58.2809 45.667V48.1912C57.8395 48.5753 57.3828 48.8639 56.9089 49.0568C56.435 49.2498 55.944 49.3472 55.4357 49.3472C54.3198 49.3472 53.416 48.9861 52.7243 48.2638C52.0345 47.5416 51.6887 46.5957 51.6887 45.4244C51.6887 44.3085 52.0365 43.378 52.7339 42.6328C53.4294 41.8895 54.2931 41.5168 55.323 41.5168C55.9516 41.5168 56.4943 41.6449 56.9567 41.9028C57.4172 42.1608 57.7994 42.5468 58.1012 43.0608L57.6542 43.3742C57.421 42.9193 57.1344 42.5774 56.7943 42.35C56.4523 42.1226 56.0567 42.0099 55.6096 42.0099C54.8587 42.0099 54.2644 42.3194 53.8249 42.9385C53.3873 43.5595 53.1676 44.4041 53.1676 45.476C53.1676 46.506 53.3778 47.3065 53.7982 47.8797C54.2166 48.453 54.8033 48.7397 55.5523 48.7397C55.8446 48.7397 56.116 48.6957 56.3682 48.6059C56.6185 48.516 56.8364 48.3842 57.0198 48.2141V45.667H58.2809ZM61.2063 45.6327V49.1638H59.819V41.6774H61.2063V45.0824H64.3361V41.6774H65.7119V49.1638H64.3361V45.6327H61.2063ZM68.2495 46.6989H70.4277L69.3367 43.9684L68.2495 46.6989ZM66.6196 49.1638L69.694 41.5284L72.8907 49.1638H71.4137L70.6341 47.169H68.0546L67.2826 49.1638H66.6196ZM73.5863 41.6774H74.9735V46.1983C74.9735 47.0791 75.0977 47.6925 75.3442 48.0384C75.5907 48.3842 76.0073 48.5562 76.5939 48.5562C77.1786 48.5562 77.5951 48.3842 77.8398 48.0384C78.0843 47.6925 78.2066 47.0791 78.2066 46.1983V41.6774H78.8715V46.4505C78.8715 47.4154 78.6518 48.1396 78.2142 48.6231C77.7747 49.1065 77.1155 49.3472 76.2346 49.3472C75.8429 49.3472 75.4665 49.2766 75.1073 49.1351C74.7461 48.9938 74.45 48.7988 74.2188 48.5524C73.9914 48.3135 73.829 48.0403 73.7315 47.7327C73.634 47.425 73.5863 46.9989 73.5863 46.4505V41.6774ZM80.8721 47.7422C81.0365 48.0555 81.2467 48.3002 81.5027 48.476C81.7568 48.6517 82.032 48.7397 82.3282 48.7397C82.7275 48.7397 83.0523 48.6135 83.3027 48.3613C83.553 48.109 83.6771 47.7862 83.6771 47.3906C83.6771 46.7582 83.1192 46.2136 82.0014 45.755L81.9861 45.7492C81.3843 45.5028 80.9581 45.2238 80.7078 44.9143C80.4556 44.6047 80.3295 44.213 80.3295 43.7392C80.3295 43.0894 80.5454 42.5564 80.9791 42.1417C81.4109 41.7251 81.9709 41.5168 82.6587 41.5168C83.1728 41.5168 83.6237 41.6335 84.0096 41.8647C84.3956 42.0959 84.6822 42.4245 84.8695 42.8487L84.3765 43.1792C84.2543 42.8296 84.0689 42.5601 83.8223 42.3729C83.5759 42.1837 83.2835 42.0901 82.9435 42.0901C82.5804 42.0901 82.2842 42.2066 82.053 42.4398C81.8218 42.6729 81.7053 42.9767 81.7053 43.355C81.7053 43.6531 81.8008 43.9053 81.9919 44.1155C82.181 44.3238 82.5384 44.5397 83.0619 44.7633C83.8854 45.1187 84.43 45.457 84.6918 45.7817C84.9555 46.1065 85.0873 46.5231 85.0873 47.0294C85.0873 47.7021 84.8542 48.2562 84.3899 48.6918C83.9255 49.1294 83.337 49.3472 82.6243 49.3472C82.1084 49.3472 81.6652 49.2479 81.2925 49.051C80.918 48.8543 80.5931 48.5485 80.318 48.1339L80.8721 47.7422Z" fill="black"/>
<path fill-rule="evenodd" clip-rule="evenodd" d="M85.4283 41.6972V39.8338H86.4682V40.0918H85.7306V40.5583H86.4682V40.8241H85.7306V41.4261H86.4682V41.6972H85.4283ZM86.7079 41.3245L86.9503 41.2124C86.9737 41.2959 87.0154 41.3584 87.0754 41.4027C87.1379 41.447 87.2161 41.4678 87.3099 41.4678C87.4011 41.4678 87.4715 41.4418 87.5262 41.3923C87.5784 41.3427 87.6044 41.275 87.6044 41.1916C87.6044 41.0822 87.5132 40.9857 87.3308 40.8997C87.3073 40.8867 87.2865 40.8763 87.2734 40.8711C87.0675 40.772 86.932 40.6809 86.8617 40.6C86.7939 40.5192 86.7601 40.4202 86.7601 40.3029C86.7601 40.1492 86.8121 40.0267 86.9138 39.9328C87.018 39.839 87.1536 39.7921 87.3203 39.7921C87.4585 39.7921 87.5732 39.8182 87.6644 39.8703C87.7582 39.925 87.8208 40.0006 87.8573 40.0997L87.62 40.2221C87.5835 40.1622 87.5419 40.1205 87.4975 40.0944C87.4533 40.0657 87.4012 40.0527 87.3438 40.0527C87.2631 40.0527 87.1979 40.0736 87.1509 40.1152C87.1014 40.1596 87.078 40.2143 87.078 40.2873C87.078 40.3993 87.1849 40.5036 87.3933 40.6C87.4116 40.6079 87.422 40.613 87.4324 40.6182C87.6174 40.7017 87.7426 40.7851 87.8129 40.8658C87.8806 40.9466 87.9146 41.0483 87.9146 41.1707C87.9146 41.3454 87.8598 41.4861 87.7478 41.5903C87.6357 41.6946 87.4872 41.7467 87.2969 41.7467C87.1379 41.7467 87.0077 41.7102 86.906 41.6372C86.807 41.5643 86.7391 41.46 86.7079 41.3245ZM88.8476 40.0918V41.6972H88.5453V40.0918H88.05V39.8338H89.3401V40.0918H88.8476ZM89.5851 41.5565C89.5851 41.5095 89.6007 41.4705 89.6346 41.4366C89.6659 41.4027 89.705 41.3871 89.7518 41.3871C89.7988 41.3871 89.8379 41.4027 89.8718 41.4366C89.903 41.4705 89.9187 41.5095 89.9187 41.5565C89.9187 41.6008 89.903 41.6399 89.8718 41.6737C89.8379 41.705 89.7988 41.7207 89.7518 41.7207C89.705 41.7207 89.6659 41.705 89.6346 41.6737C89.6007 41.6399 89.5851 41.6008 89.5851 41.5565ZM92.2356 41.4548V41.6972H90.9872L91.683 40.8633C91.7717 40.759 91.8342 40.6677 91.8733 40.5896C91.9124 40.5088 91.9333 40.4385 91.9333 40.3733C91.9333 40.2821 91.9072 40.2091 91.8524 40.1544C91.7977 40.1022 91.7221 40.0762 91.6257 40.0762C91.5423 40.0762 91.472 40.1022 91.4173 40.1544C91.3625 40.2091 91.3313 40.2795 91.3234 40.3655H91.0315C91.0315 40.1987 91.0889 40.0657 91.2009 39.9641C91.313 39.8651 91.4615 39.8156 91.6517 39.8156C91.8316 39.8156 91.9723 39.8625 92.0765 39.9537C92.1808 40.0475 92.2329 40.1726 92.2329 40.3316C92.2329 40.4463 92.2042 40.5609 92.1443 40.6756C92.0844 40.7902 91.9566 40.9596 91.7639 41.1812L91.5267 41.4548H92.2356ZM93.9634 40.8007C93.9634 41.0952 93.9035 41.3271 93.7836 41.4965C93.6663 41.6633 93.5021 41.7467 93.2937 41.7467C93.0826 41.7467 92.9184 41.6607 92.8011 41.4939C92.6838 41.3245 92.6238 41.0847 92.6238 40.7799C92.6238 40.475 92.6838 40.2404 92.8011 40.071C92.9209 39.899 93.0851 39.8156 93.2962 39.8156C93.5099 39.8156 93.6741 39.9016 93.7915 40.071C93.9061 40.2404 93.9634 40.4827 93.9634 40.8007ZM93.2885 41.4861C93.4109 41.4861 93.5047 41.4261 93.5673 41.3089C93.6298 41.189 93.6611 41.0118 93.6611 40.7772C93.6611 40.5479 93.6298 40.3733 93.5699 40.2534C93.5074 40.1335 93.4187 40.0736 93.2989 40.0736C93.1764 40.0736 93.0826 40.1335 93.02 40.2534C92.9574 40.3733 92.9262 40.5479 92.9262 40.7824C92.9262 41.0092 92.9574 41.1837 93.02 41.3037C93.0826 41.4261 93.1711 41.4861 93.2885 41.4861ZM94.7688 41.6972V40.0918H94.383L94.5003 39.8521H95.045V41.6972H94.7688ZM95.9546 41.2515C95.9988 41.3324 96.0536 41.3923 96.1213 41.434C96.1891 41.4783 96.2647 41.4991 96.3481 41.4991C96.4731 41.4991 96.5722 41.46 96.6478 41.3819C96.7233 41.3037 96.7625 41.1994 96.7625 41.0717C96.7625 40.9466 96.7234 40.8476 96.6426 40.7694C96.5618 40.6939 96.4576 40.6547 96.3272 40.6547C96.249 40.6547 96.176 40.6677 96.111 40.6939C96.0431 40.7225 95.9858 40.7616 95.9337 40.8137L95.8581 40.7981L96.0901 39.8521H96.9709V40.097H96.2725L96.163 40.5088C96.2125 40.488 96.262 40.4723 96.3116 40.4618C96.3585 40.4515 96.4054 40.4463 96.4523 40.4463C96.6295 40.4463 96.7755 40.5036 96.8849 40.6157C96.997 40.7304 97.0517 40.8789 97.0517 41.0613C97.0517 41.2697 96.9866 41.4366 96.8562 41.5591C96.7285 41.6842 96.554 41.7467 96.335 41.7467C96.2073 41.7467 96.0953 41.7259 95.9988 41.679C95.9051 41.6346 95.8216 41.5669 95.7539 41.4731L95.9546 41.2515Z" fill="#FEFEFE"/>
<path fill-rule="evenodd" clip-rule="evenodd" d="M85.4283 41.6972V39.8338H86.4682V40.0918H85.7306V40.5583H86.4682V40.8241H85.7306V41.4261H86.4682V41.6972H85.4283ZM86.7079 41.3245L86.9503 41.2124C86.9737 41.2959 87.0154 41.3584 87.0754 41.4027C87.1379 41.447 87.2161 41.4678 87.3099 41.4678C87.4011 41.4678 87.4715 41.4418 87.5262 41.3923C87.5784 41.3427 87.6044 41.275 87.6044 41.1916C87.6044 41.0822 87.5132 40.9857 87.3308 40.8997C87.3073 40.8867 87.2865 40.8763 87.2734 40.8711C87.0675 40.772 86.932 40.6809 86.8617 40.6C86.7939 40.5192 86.7601 40.4202 86.7601 40.3029C86.7601 40.1492 86.8121 40.0267 86.9138 39.9328C87.018 39.839 87.1536 39.7921 87.3203 39.7921C87.4585 39.7921 87.5732 39.8182 87.6644 39.8703C87.7582 39.925 87.8208 40.0006 87.8573 40.0997L87.62 40.2221C87.5835 40.1622 87.5419 40.1205 87.4975 40.0944C87.4533 40.0657 87.4012 40.0527 87.3438 40.0527C87.2631 40.0527 87.1979 40.0736 87.1509 40.1152C87.1014 40.1596 87.078 40.2143 87.078 40.2873C87.078 40.3993 87.1849 40.5036 87.3933 40.6C87.4116 40.6079 87.422 40.613 87.4324 40.6182C87.6174 40.7017 87.7426 40.7851 87.8129 40.8658C87.8806 40.9466 87.9146 41.0483 87.9146 41.1707C87.9146 41.3454 87.8598 41.4861 87.7478 41.5903C87.6357 41.6946 87.4872 41.7467 87.2969 41.7467C87.1379 41.7467 87.0077 41.7102 86.906 41.6372C86.807 41.5643 86.7391 41.46 86.7079 41.3245ZM88.8476 40.0918V41.6972H88.5453V40.0918H88.05V39.8338H89.3401V40.0918H88.8476ZM89.5851 41.5565C89.5851 41.5095 89.6007 41.4705 89.6346 41.4366C89.6659 41.4027 89.705 41.3871 89.7518 41.3871C89.7988 41.3871 89.8379 41.4027 89.8718 41.4366C89.903 41.4705 89.9187 41.5095 89.9187 41.5565C89.9187 41.6008 89.903 41.6399 89.8718 41.6737C89.8379 41.705 89.7988 41.7207 89.7518 41.7207C89.705 41.7207 89.6659 41.705 89.6346 41.6737C89.6007 41.6399 89.5851 41.6008 89.5851 41.5565ZM92.2356 41.4548V41.6972H90.9872L91.683 40.8633C91.7717 40.759 91.8342 40.6677 91.8733 40.5896C91.9124 40.5088 91.9333 40.4385 91.9333 40.3733C91.9333 40.2821 91.9072 40.2091 91.8524 40.1544C91.7977 40.1022 91.7221 40.0762 91.6257 40.0762C91.5423 40.0762 91.472 40.1022 91.4173 40.1544C91.3625 40.2091 91.3313 40.2795 91.3234 40.3655H91.0315C91.0315 40.1987 91.0889 40.0657 91.2009 39.9641C91.313 39.8651 91.4615 39.8156 91.6517 39.8156C91.8316 39.8156 91.9723 39.8625 92.0765 39.9537C92.1808 40.0475 92.2329 40.1726 92.2329 40.3316C92.2329 40.4463 92.2042 40.5609 92.1443 40.6756C92.0844 40.7902 91.9566 40.9596 91.7639 41.1812L91.5267 41.4548H92.2356ZM93.9634 40.8007C93.9634 41.0952 93.9035 41.3271 93.7836 41.4965C93.6663 41.6633 93.5021 41.7467 93.2937 41.7467C93.0826 41.7467 92.9184 41.6607 92.8011 41.4939C92.6838 41.3245 92.6238 41.0847 92.6238 40.7799C92.6238 40.475 92.6838 40.2404 92.8011 40.071C92.9209 39.899 93.0851 39.8156 93.2962 39.8156C93.5099 39.8156 93.6741 39.9016 93.7915 40.071C93.9061 40.2404 93.9634 40.4827 93.9634 40.8007ZM93.2885 41.4861C93.4109 41.4861 93.5047 41.4261 93.5673 41.3089C93.6298 41.189 93.6611 41.0118 93.6611 40.7772C93.6611 40.5479 93.6298 40.3733 93.5699 40.2534C93.5074 40.1335 93.4187 40.0736 93.2989 40.0736C93.1764 40.0736 93.0826 40.1335 93.02 40.2534C92.9574 40.3733 92.9262 40.5479 92.9262 40.7824C92.9262 41.0092 92.9574 41.1837 93.02 41.3037C93.0826 41.4261 93.1711 41.4861 93.2885 41.4861ZM94.7688 41.6972V40.0918H94.383L94.5003 39.8521H95.045V41.6972H94.7688ZM95.9546 41.2515C95.9988 41.3324 96.0536 41.3923 96.1213 41.434C96.1891 41.4783 96.2647 41.4991 96.3481 41.4991C96.4731 41.4991 96.5722 41.46 96.6478 41.3819C96.7233 41.3037 96.7625 41.1994 96.7625 41.0717C96.7625 40.9466 96.7234 40.8476 96.6426 40.7694C96.5618 40.6939 96.4576 40.6547 96.3272 40.6547C96.249 40.6547 96.176 40.6677 96.111 40.6939C96.0431 40.7225 95.9858 40.7616 95.9337 40.8137L95.8581 40.7981L96.0901 39.8521H96.9709V40.097H96.2725L96.163 40.5088C96.2125 40.488 96.262 40.4723 96.3116 40.4618C96.3585 40.4515 96.4054 40.4463 96.4523 40.4463C96.6295 40.4463 96.7755 40.5036 96.8849 40.6157C96.997 40.7304 97.0517 40.8789 97.0517 41.0613C97.0517 41.2697 96.9866 41.4366 96.8562 41.5591C96.7285 41.6842 96.554 41.7467 96.335 41.7467C96.2073 41.7467 96.0953 41.7259 95.9988 41.679C95.9051 41.6346 95.8216 41.5669 95.7539 41.4731L95.9546 41.2515Z" fill="black"/>
<path fill-rule="evenodd" clip-rule="evenodd" d="M1.31558 49.2005V44.5534H0V44.1764H3.55447V44.5534H2.23889V49.2005H1.31558ZM4.83941 49.2005H4.10849V43.8224H4.83941V47.254H6.08577V45.9075H6.81669V49.2005H6.08577V47.5386H4.83941V49.2005ZM7.84772 46.5C7.84772 46.2537 7.88616 46.0922 7.96313 46.0229C8.0477 45.946 8.20928 45.9075 8.46325 45.9075H10.0327V46.1922H8.90945C8.77862 46.1922 8.68629 46.2076 8.64788 46.2461C8.60172 46.2845 8.57863 46.3538 8.57863 46.4538V47.2847H9.77116V47.6078H8.57863V48.6542C8.57863 48.7542 8.60172 48.8234 8.64788 48.8619C8.69405 48.9004 8.79403 48.9159 8.96326 48.9159H10.0712V49.2005H8.34775C8.16312 49.2005 8.03238 49.162 7.95537 49.0851C7.88615 49.0082 7.84772 48.8465 7.84772 48.6081V46.5Z" fill="black"/>
</svg>
